<svg xmlns="http://www.w3.org/2000/svg" xmlns:xlink="http://www.w3.org/1999/xlink" width="500" zoomAndPan="magnify" viewBox="0 0 375 374.999991" height="500" preserveAspectRatio="xMidYMid meet" version="1.0"><defs><g/><clipPath id="6ad57fb144"><path d="M 128.03125 37.5 L 240.53125 37.5 L 240.53125 337.5 L 128.03125 337.5 Z M 128.03125 37.5 " clip-rule="nonzero"/></clipPath><clipPath id="ba504c23c5"><path d="M 128.03125 316.5 L 128.03125 58.5 C 128.03125 46.902344 137.433594 37.5 149.03125 37.5 L 219.53125 37.5 C 231.132812 37.5 240.53125 46.902344 240.53125 58.5 L 240.53125 316.5 C 240.53125 328.097656 231.132812 337.5 219.53125 337.5 L 149.03125 337.5 C 137.433594 337.5 128.03125 328.097656 128.03125 316.5 Z M 128.03125 316.5 " clip-rule="nonzero"/></clipPath><clipPath id="45c626d632"><path d="M 147.453125 246.546875 L 220.953125 246.546875 L 220.953125 320.046875 L 147.453125 320.046875 Z M 147.453125 246.546875 " clip-rule="nonzero"/></clipPath><clipPath id="25b531be8f"><path d="M 147.453125 54.816406 L 220.953125 54.816406 L 220.953125 128.316406 L 147.453125 128.316406 Z M 147.453125 54.816406 " clip-rule="nonzero"/></clipPath></defs><g clip-path="url(#6ad57fb144)"><g clip-path="url(#ba504c23c5)"><path stroke-linecap="butt" transform="matrix(0, -0.75, 0.75, 0, 128.033199, 337.499978)" fill="none" stroke-linejoin="miter" d="M 27.999972 -0.00259906 L 371.999995 -0.00259906 C 387.463538 -0.00259906 399.999997 12.53386 399.999997 27.997403 L 399.999997 121.997409 C 399.999997 137.46616 387.463538 149.997411 371.999995 149.997411 L 27.999972 149.997411 C 12.53643 149.997411 -0.00002955 137.46616 -0.00002955 121.997409 L -0.00002955 27.997403 C -0.00002955 12.53386 12.53643 -0.00259906 27.999972 -0.00259906 Z M 27.999972 -0.00259906 " stroke="#000000" stroke-width="40" stroke-opacity="1" stroke-miterlimit="4"/></g></g><path stroke-linecap="round" transform="matrix(0.475758, -0.579788, 0.579788, 0.475758, 128.031807, 244.159129)" fill="none" stroke-linejoin="miter" d="M 10.000574 9.997232 L 201.870007 10.000066 " stroke="#000000" stroke-width="20" stroke-opacity="1" stroke-miterlimit="4"/><path stroke-linecap="round" transform="matrix(-0.475758, -0.579788, 0.579788, -0.475758, 228.931189, 253.6743)" fill="none" stroke-linejoin="miter" d="M 10.000708 10.002607 L 201.870141 9.999773 " stroke="#000000" stroke-width="20" stroke-opacity="1" stroke-miterlimit="4"/><g clip-path="url(#45c626d632)"><path fill="#000000" d="M 139.816406 247.21875 L 139.816406 319.394531 C 139.816406 323.691406 143.308594 327.183594 147.601562 327.183594 L 219.78125 327.183594 C 224.074219 327.183594 227.566406 323.691406 227.566406 319.394531 L 227.566406 247.21875 C 227.566406 242.925781 224.074219 239.433594 219.78125 239.433594 L 147.601562 239.433594 C 143.308594 239.433594 139.816406 242.925781 139.816406 247.21875 Z M 219.78125 243.167969 C 222.015625 243.167969 223.832031 244.984375 223.832031 247.21875 L 223.832031 319.394531 C 223.832031 321.628906 222.015625 323.449219 219.78125 323.449219 L 147.601562 323.449219 C 145.367188 323.449219 143.550781 321.628906 143.550781 319.394531 L 143.550781 247.21875 C 143.550781 244.984375 145.367188 243.167969 147.601562 243.167969 Z M 147.285156 283.308594 C 147.285156 303.378906 163.621094 319.714844 183.691406 319.714844 C 203.761719 319.714844 220.097656 303.378906 220.097656 283.308594 C 220.097656 263.238281 203.761719 246.898438 183.691406 246.898438 C 163.621094 246.898438 147.285156 263.238281 147.285156 283.308594 Z M 183.691406 290.105469 C 179.941406 290.105469 176.894531 287.054688 176.894531 283.308594 C 176.894531 279.558594 179.941406 276.507812 183.691406 276.507812 C 187.441406 276.507812 190.488281 279.558594 190.488281 283.308594 C 190.488281 287.054688 187.441406 290.105469 183.691406 290.105469 Z M 177.679688 274.671875 L 171.535156 266.523438 C 170.25 264.804688 169.578125 262.734375 169.578125 260.621094 C 169.578125 259.933594 169.652344 259.203125 169.800781 258.496094 C 170.265625 256.441406 171.367188 254.59375 172.9375 253.230469 L 179.914062 273.488281 C 179.117188 273.792969 178.367188 274.191406 177.679688 274.671875 Z M 174.074219 279.035156 C 173.734375 279.800781 173.484375 280.613281 173.332031 281.460938 L 163.230469 280.039062 C 160.390625 279.628906 157.871094 278.003906 156.339844 275.597656 C 155.3125 273.992188 154.789062 272.160156 154.789062 270.3125 C 154.789062 270.089844 154.808594 269.882812 154.828125 269.660156 Z M 175.054688 289.316406 L 166.90625 295.460938 C 164.609375 297.179688 161.699219 297.8125 158.878906 297.199219 C 156.824219 296.730469 154.976562 295.628906 153.613281 294.0625 L 173.871094 287.085938 C 174.179688 287.878906 174.574219 288.628906 175.054688 289.316406 Z M 181.84375 293.667969 L 180.425781 303.769531 C 180.011719 306.609375 178.390625 309.128906 175.980469 310.660156 C 174.1875 311.796875 172.097656 312.320312 170.042969 312.171875 L 179.417969 292.925781 C 180.183594 293.265625 180.996094 293.515625 181.84375 293.667969 Z M 187.46875 293.125 C 188.265625 292.820312 189.015625 292.425781 189.703125 291.941406 L 195.84375 300.089844 C 197.5625 302.386719 198.199219 305.300781 197.582031 308.121094 C 197.117188 310.171875 196.015625 312.023438 194.445312 313.386719 Z M 193.308594 287.582031 C 193.648438 286.816406 193.898438 286.003906 194.050781 285.152344 L 204.152344 286.574219 C 206.992188 286.984375 209.511719 288.609375 211.042969 291.019531 C 212.183594 292.808594 212.703125 294.882812 212.554688 296.957031 Z M 192.328125 277.296875 L 200.476562 271.152344 C 202.773438 269.433594 205.683594 268.800781 208.503906 269.417969 C 210.558594 269.882812 212.40625 270.984375 213.769531 272.554688 L 193.511719 279.53125 C 193.203125 278.734375 192.808594 277.984375 192.328125 277.296875 Z M 185.539062 272.949219 L 186.957031 262.84375 C 187.371094 260.007812 188.992188 257.484375 191.402344 255.957031 C 193.195312 254.816406 195.285156 254.292969 197.339844 254.441406 L 187.964844 273.691406 C 187.199219 273.347656 186.386719 273.097656 185.539062 272.949219 Z M 149.675781 319.808594 C 148.386719 319.808594 147.339844 318.78125 147.339844 317.492188 C 147.339844 316.203125 148.386719 315.160156 149.675781 315.160156 C 150.960938 315.160156 152.007812 316.203125 152.007812 317.492188 C 152.007812 318.78125 150.960938 319.808594 149.675781 319.808594 Z M 149.675781 246.789062 C 150.960938 246.789062 152.007812 247.832031 152.007812 249.121094 C 152.007812 250.429688 150.960938 251.457031 149.675781 251.457031 C 148.386719 251.457031 147.339844 250.429688 147.339844 249.121094 C 147.339844 247.832031 148.386719 246.789062 149.675781 246.789062 Z M 218.230469 315.160156 C 219.519531 315.160156 220.566406 316.203125 220.566406 317.492188 C 220.566406 318.78125 219.519531 319.828125 218.230469 319.828125 C 216.941406 319.828125 215.898438 318.78125 215.898438 317.492188 C 215.898438 316.203125 216.941406 315.160156 218.230469 315.160156 Z M 218.230469 246.789062 C 219.519531 246.789062 220.566406 247.832031 220.566406 249.121094 C 220.566406 250.410156 219.519531 251.457031 218.230469 251.457031 C 216.941406 251.457031 215.898438 250.410156 215.898438 249.121094 C 215.898438 247.832031 216.941406 246.789062 218.230469 246.789062 Z M 183.46875 280.972656 C 184.734375 280.972656 185.800781 282.019531 185.800781 283.308594 C 185.800781 284.59375 184.734375 285.640625 183.46875 285.640625 C 182.179688 285.640625 181.132812 284.59375 181.132812 283.308594 C 181.132812 282.019531 182.179688 280.972656 183.46875 280.972656 Z M 183.46875 280.972656 " fill-opacity="1" fill-rule="nonzero"/></g><g fill="#000000" fill-opacity="1"><g transform="translate(46.248049, 233.999985)"><g><path d="M 44.640625 -94.640625 C 50.179688 -94.640625 55.003906 -93.679688 59.109375 -91.765625 C 63.222656 -89.847656 66.644531 -87.28125 69.375 -84.0625 C 72.101562 -80.84375 74.160156 -77.242188 75.546875 -73.265625 C 76.929688 -69.285156 77.625 -65.238281 77.625 -61.125 C 77.625 -55.675781 76.394531 -50.40625 73.9375 -45.3125 C 71.476562 -40.21875 67.8125 -36.039062 62.9375 -32.78125 C 58.070312 -29.519531 51.972656 -27.890625 44.640625 -27.890625 L 29.625 -27.890625 L 29.625 0 L 6.703125 0 L 6.703125 -94.640625 Z M 44.640625 -49.46875 C 48.210938 -49.46875 50.867188 -50.648438 52.609375 -53.015625 C 54.359375 -55.390625 55.234375 -57.960938 55.234375 -60.734375 C 55.234375 -63.585938 54.359375 -66.242188 52.609375 -68.703125 C 50.867188 -71.160156 48.210938 -72.390625 44.640625 -72.390625 L 29.625 -72.390625 L 29.625 -49.46875 Z M 44.640625 -49.46875 "/></g></g></g><g fill="#000000" fill-opacity="1"><g transform="translate(240.533192, 233.999985)"><g><path d="M 57.78125 0 L 29.890625 -36.328125 L 29.890625 0 L 6.96875 0 L 6.96875 -93.84375 L 29.890625 -93.84375 L 29.890625 -57.375 L 55.90625 -93.84375 L 83.125 -93.84375 L 83.125 -92.5 L 49.875 -47.1875 L 86.203125 -1.203125 L 86.203125 0 Z M 57.78125 0 "/></g></g></g><g clip-path="url(#25b531be8f)"><path fill="#000000" d="M 139.816406 55.484375 L 139.816406 127.664062 C 139.816406 131.957031 143.308594 135.449219 147.601562 135.449219 L 219.78125 135.449219 C 224.074219 135.449219 227.566406 131.957031 227.566406 127.664062 L 227.566406 55.484375 C 227.566406 51.191406 224.074219 47.699219 219.78125 47.699219 L 147.601562 47.699219 C 143.308594 47.699219 139.816406 51.191406 139.816406 55.484375 Z M 219.78125 51.433594 C 222.015625 51.433594 223.832031 53.25 223.832031 55.484375 L 223.832031 127.664062 C 223.832031 129.898438 222.015625 131.714844 219.78125 131.714844 L 147.601562 131.714844 C 145.367188 131.714844 143.550781 129.898438 143.550781 127.664062 L 143.550781 55.484375 C 143.550781 53.25 145.367188 51.433594 147.601562 51.433594 Z M 147.285156 91.574219 C 147.285156 111.644531 163.621094 127.980469 183.691406 127.980469 C 203.761719 127.980469 220.097656 111.644531 220.097656 91.574219 C 220.097656 71.503906 203.761719 55.167969 183.691406 55.167969 C 163.621094 55.167969 147.285156 71.503906 147.285156 91.574219 Z M 183.691406 98.371094 C 179.941406 98.371094 176.894531 95.324219 176.894531 91.574219 C 176.894531 87.824219 179.941406 84.777344 183.691406 84.777344 C 187.441406 84.777344 190.488281 87.824219 190.488281 91.574219 C 190.488281 95.324219 187.441406 98.371094 183.691406 98.371094 Z M 177.679688 82.9375 L 171.535156 74.789062 C 170.25 73.070312 169.578125 71 169.578125 68.890625 C 169.578125 68.199219 169.652344 67.472656 169.800781 66.761719 C 170.265625 64.707031 171.367188 62.859375 172.9375 61.496094 L 179.914062 81.753906 C 179.117188 82.0625 178.367188 82.457031 177.679688 82.9375 Z M 174.074219 87.300781 C 173.734375 88.066406 173.484375 88.878906 173.332031 89.726562 L 163.230469 88.308594 C 160.390625 87.894531 157.871094 86.273438 156.339844 83.863281 C 155.3125 82.257812 154.789062 80.429688 154.789062 78.578125 C 154.789062 78.355469 154.808594 78.148438 154.828125 77.925781 Z M 175.054688 97.585938 L 166.90625 103.726562 C 164.609375 105.445312 161.699219 106.082031 158.878906 105.464844 C 156.824219 104.996094 154.976562 103.894531 153.613281 102.328125 L 173.871094 95.351562 C 174.179688 96.148438 174.574219 96.894531 175.054688 97.585938 Z M 181.84375 101.933594 L 180.425781 112.035156 C 180.011719 114.875 178.390625 117.394531 175.980469 118.925781 C 174.1875 120.066406 172.097656 120.585938 170.042969 120.4375 L 179.417969 101.191406 C 180.183594 101.53125 180.996094 101.78125 181.84375 101.933594 Z M 187.46875 101.394531 C 188.265625 101.085938 189.015625 100.691406 189.703125 100.210938 L 195.84375 108.359375 C 197.5625 110.65625 198.199219 113.566406 197.582031 116.386719 C 197.117188 118.441406 196.015625 120.289062 194.445312 121.652344 Z M 193.308594 95.847656 C 193.648438 95.082031 193.898438 94.269531 194.050781 93.421875 L 204.152344 94.839844 C 206.992188 95.253906 209.511719 96.875 211.042969 99.285156 C 212.183594 101.078125 212.703125 103.148438 212.554688 105.222656 Z M 192.328125 85.5625 L 200.476562 79.417969 C 202.773438 77.703125 205.683594 77.066406 208.503906 77.683594 C 210.558594 78.148438 212.40625 79.25 213.769531 80.820312 L 193.511719 87.796875 C 193.203125 87 192.808594 86.25 192.328125 85.5625 Z M 185.539062 81.214844 L 186.957031 71.113281 C 187.371094 68.273438 188.992188 65.753906 191.402344 64.222656 C 193.195312 63.082031 195.285156 62.558594 197.339844 62.710938 L 187.964844 81.957031 C 187.199219 81.617188 186.386719 81.367188 185.539062 81.214844 Z M 149.675781 128.074219 C 148.386719 128.074219 147.339844 127.046875 147.339844 125.757812 C 147.339844 124.472656 148.386719 123.425781 149.675781 123.425781 C 150.960938 123.425781 152.007812 124.472656 152.007812 125.757812 C 152.007812 127.046875 150.960938 128.074219 149.675781 128.074219 Z M 149.675781 55.054688 C 150.960938 55.054688 152.007812 56.101562 152.007812 57.390625 C 152.007812 58.695312 150.960938 59.722656 149.675781 59.722656 C 148.386719 59.722656 147.339844 58.695312 147.339844 57.390625 C 147.339844 56.101562 148.386719 55.054688 149.675781 55.054688 Z M 218.230469 123.425781 C 219.519531 123.425781 220.566406 124.472656 220.566406 125.757812 C 220.566406 127.046875 219.519531 128.09375 218.230469 128.09375 C 216.941406 128.09375 215.898438 127.046875 215.898438 125.757812 C 215.898438 124.472656 216.941406 123.425781 218.230469 123.425781 Z M 218.230469 55.054688 C 219.519531 55.054688 220.566406 56.101562 220.566406 57.390625 C 220.566406 58.675781 219.519531 59.722656 218.230469 59.722656 C 216.941406 59.722656 215.898438 58.675781 215.898438 57.390625 C 215.898438 56.101562 216.941406 55.054688 218.230469 55.054688 Z M 183.46875 89.238281 C 184.734375 89.238281 185.800781 90.285156 185.800781 91.574219 C 185.800781 92.863281 184.734375 93.90625 183.46875 93.90625 C 182.179688 93.90625 181.132812 92.863281 181.132812 91.574219 C 181.132812 90.285156 182.179688 89.238281 183.46875 89.238281 Z M 183.46875 89.238281 " fill-opacity="1" fill-rule="nonzero"/></g></svg>